<?xml version="1.0" encoding="UTF-8" standalone="no"?>
<!-- Generator: Adobe Illustrator 16.0.0, SVG Export Plug-In . SVG Version: 6.00 Build 0)  -->

<svg
   xmlns:dc="http://purl.org/dc/elements/1.1/"
   xmlns:cc="http://creativecommons.org/ns#"
   xmlns:rdf="http://www.w3.org/1999/02/22-rdf-syntax-ns#"
   xmlns:svg="http://www.w3.org/2000/svg"
   xmlns="http://www.w3.org/2000/svg"
   xmlns:sodipodi="http://sodipodi.sourceforge.net/DTD/sodipodi-0.dtd"
   xmlns:inkscape="http://www.inkscape.org/namespaces/inkscape"
   version="1.0"
   id="Layer_1"
   x="0px"
   y="0px"
   width="120.03038"
   height="15.362636"
   viewBox="54.5 0 120.03038 15.362636"
   enable-background="new 54.5 0 145.5 40"
   xml:space="preserve"
   inkscape:version="0.48.2 r9819"
   sodipodi:docname="logo_admin-2.svg"><metadata
   id="metadata11"><rdf:RDF><cc:Work
       rdf:about=""><dc:format>image/svg+xml</dc:format><dc:type
         rdf:resource="http://purl.org/dc/dcmitype/StillImage" /></cc:Work></rdf:RDF></metadata><defs
   id="defs9" /><sodipodi:namedview
   pagecolor="#ffffff"
   bordercolor="#666666"
   borderopacity="1"
   objecttolerance="10"
   gridtolerance="10"
   guidetolerance="10"
   inkscape:pageopacity="0"
   inkscape:pageshadow="2"
   inkscape:window-width="640"
   inkscape:window-height="480"
   id="namedview7"
   showgrid="false"
   showborder="false"
   inkscape:showpageshadow="false"
   fit-margin-top="0"
   fit-margin-left="0"
   fit-margin-right="0"
   fit-margin-bottom="0"
   inkscape:zoom="2.2130584"
   inkscape:cx="59.265744"
   inkscape:cy="8.3558112"
   inkscape:window-x="0"
   inkscape:window-y="0"
   inkscape:window-maximized="0"
   inkscape:current-layer="Layer_1" />
<g
   transform="matrix(1.1598819,0,0,1.1598819,-13.075879,-15.534298)"
   id="g3">
	<path
   d="m 129.786,14.261 c 1.54,0 2.736,0.487 3.547,1.48 0.818,0.986 1.224,2.419 1.224,4.274 0,1.861 -0.406,3.276 -1.224,4.274 -0.812,0.999 -1.999,1.504 -3.547,1.504 -1.533,0 -2.72,-0.5 -3.547,-1.504 -0.818,-1.01 -1.239,-2.431 -1.239,-4.274 0,-1.838 0.413,-3.276 1.239,-4.274 0.834,-0.998 2.013,-1.48 3.547,-1.48 z m -26.767,0 c 1.533,0 2.728,0.487 3.547,1.48 0.819,0.986 1.217,2.419 1.217,4.274 0,1.861 -0.397,3.276 -1.217,4.274 -0.819,0.999 -2,1.504 -3.547,1.504 -1.541,0 -2.728,-0.5 -3.546,-1.504 -0.827,-1.01 -1.248,-2.431 -1.248,-4.274 0,-1.838 0.421,-3.276 1.248,-4.274 0.833,-0.998 2.014,-1.48 3.546,-1.48 z m 49.221,-0.68 4.298,7.984 v 4.884 h 0.939 v -4.954 l 4.269,-7.913 h -0.961 l -3.78,7.045 -3.735,-7.045 -1.03,-0.001 0,0 z m -13.767,0 v 12.868 h 0.871 v -9.651 c 0,-0.764 -0.022,-1.503 -0.067,-2.231 h 0.067 l 4.818,11.882 h 0.563 l 4.809,-11.859 h 0.075 c -0.075,0.728 -0.098,1.433 -0.098,2.114 v 9.746 h 0.894 V 13.582 h -1.36 L 144.484,24.9 h -0.045 l -4.554,-11.318 h -1.413 v -0.001 z m -26.767,0 v 12.868 h 0.872 v -8.336 c 0,-0.693 -0.03,-1.714 -0.098,-3.076 h 0.067 l 7.612,11.413 h 0.917 V 13.582 h -0.871 v 8.406 c 0,0.951 0.023,1.949 0.075,3.006 h -0.052 l -7.604,-11.412 h -0.918 v -0.001 z m -38.064,0 4.273,7.96 v 4.909 h 2.724 v -5.001 l 4.274,-7.867 H 81.95 l -2.677,5.307 -2.677,-5.307 h -2.959 0.005 z m -15.381,0 v 12.868 h 2.442 v -5.988 c 0,-0.687 -0.053,-2.054 -0.165,-4.11 h 0.071 l 3.1,10.098 h 2.49 l 3.334,-10.074 h 0.071 c -0.071,1.62 -0.106,2.63 -0.118,3.006 -0.005,0.376 0,0.698 0,0.986 v 6.082 h 2.537 V 13.582 h -3.71 l -3.241,9.839 h -0.047 l -3.053,-9.839 h -3.71 v -0.001 z m 71.525,-0.188 c -1.781,0 -3.193,0.581 -4.223,1.761 -1.029,1.174 -1.526,2.789 -1.526,4.838 0,2.054 0.503,3.669 1.526,4.861 1.022,1.185 2.435,1.785 4.223,1.785 1.797,0 3.21,-0.599 4.231,-1.785 1.022,-1.192 1.526,-2.795 1.526,-4.838 0,-2.049 -0.511,-3.681 -1.526,-4.861 -1.014,-1.186 -2.434,-1.761 -4.231,-1.761 z m -26.765,0 c -1.788,0 -3.194,0.581 -4.231,1.761 -1.022,1.174 -1.526,2.789 -1.526,4.838 0,2.054 0.503,3.669 1.526,4.861 1.021,1.185 2.434,1.785 4.231,1.785 1.796,0 3.201,-0.599 4.223,-1.785 1.022,-1.192 1.526,-2.795 1.526,-4.838 0,-2.049 -0.512,-3.681 -1.526,-4.861 -1.015,-1.186 -2.427,-1.761 -4.223,-1.761 z m -10.829,0 c -1.232,0 -2.329,0.276 -3.262,0.821 -0.929,0.54 -1.638,1.304 -2.138,2.301 -0.494,0.998 -0.728,2.166 -0.728,3.476 0,2.096 0.511,3.716 1.551,4.885 1.038,1.168 2.465,1.761 4.269,1.761 1.278,0 2.346,-0.148 3.201,-0.447 v -0.797 c -0.909,0.275 -1.908,0.422 -2.982,0.422 -1.631,0 -2.886,-0.511 -3.76,-1.526 -0.876,-1.015 -1.315,-2.437 -1.315,-4.274 0,-1.796 0.482,-3.217 1.409,-4.251 0.928,-1.033 2.193,-1.55 3.801,-1.55 1.037,10e-4 2.021,0.235 2.961,0.705 l 0.353,-0.822 c -0.993,-0.47 -2.104,-0.704 -3.36,-0.704 l 0,0 z"
   id="path5"
   inkscape:connector-curvature="0"
   style="fill:#ffffff" />
</g>
</svg>