<?xml version="1.0" encoding="UTF-8" standalone="no"?>
<!-- Generator: Adobe Illustrator 16.0.0, SVG Export Plug-In . SVG Version: 6.00 Build 0)  -->

<svg
   xmlns:dc="http://purl.org/dc/elements/1.1/"
   xmlns:cc="http://creativecommons.org/ns#"
   xmlns:rdf="http://www.w3.org/1999/02/22-rdf-syntax-ns#"
   xmlns:svg="http://www.w3.org/2000/svg"
   xmlns="http://www.w3.org/2000/svg"
   xmlns:sodipodi="http://sodipodi.sourceforge.net/DTD/sodipodi-0.dtd"
   xmlns:inkscape="http://www.inkscape.org/namespaces/inkscape"
   version="1.0"
   id="Layer_1"
   x="0px"
   y="0px"
   width="48.426395"
   height="28.025286"
   viewBox="0 0 48.426395 28.025286"
   enable-background="new 0 0 62.5 40"
   xml:space="preserve"
   inkscape:version="0.48.2 r9819"
   sodipodi:docname="logo_admin-1.svg"><metadata
   id="metadata11"><rdf:RDF><cc:Work
       rdf:about=""><dc:format>image/svg+xml</dc:format><dc:type
         rdf:resource="http://purl.org/dc/dcmitype/StillImage" /></cc:Work></rdf:RDF></metadata><defs
   id="defs9" /><sodipodi:namedview
   pagecolor="#ffffff"
   bordercolor="#666666"
   borderopacity="1"
   objecttolerance="10"
   gridtolerance="10"
   guidetolerance="10"
   inkscape:pageopacity="0"
   inkscape:pageshadow="2"
   inkscape:window-width="640"
   inkscape:window-height="480"
   id="namedview7"
   showgrid="false"
   fit-margin-top="0"
   fit-margin-left="0"
   fit-margin-right="0"
   fit-margin-bottom="0"
   showborder="false"
   inkscape:showpageshadow="false"
   inkscape:zoom="5.152"
   inkscape:cx="24.969309"
   inkscape:cy="14.264608"
   inkscape:window-x="0"
   inkscape:window-y="0"
   inkscape:window-maximized="0"
   inkscape:current-layer="Layer_1" />
<g
   transform="matrix(1.1598819,0,0,1.1598819,-5.872315,-8.7804446)"
   id="g3">
	<path
   d="m 9.782,21.264 c -2.674,0.194 -4.739,2.451 -4.719,5.158 0,2.841 2.281,5.143 5.095,5.143 2.813,0 5.093,-2.303 5.093,-5.143 0.015,-2.8 -2.197,-5.095 -4.969,-5.158 -0.167,-0.008 -0.333,-0.008 -0.5,0 l 0,0 z M 33.908,7.608 c -2.807,0 -5.094,2.291 -5.094,5.125 0,2.834 2.287,5.157 5.094,5.157 0.643,0 1.247,-0.125 1.813,-0.344 1.255,-0.335 2.626,0.261 3.187,1.312 0.672,1.189 0.527,2.642 -0.437,3.625 -1.114,0.941 -1.813,2.357 -1.813,3.938 0,2.834 2.256,5.125 5.063,5.125 2.807,0 5.093,-2.291 5.093,-5.125 0,-0.89 -0.23,-1.74 -0.624,-2.469 -0.02,-0.035 -0.044,-0.06 -0.062,-0.094 C 46.12,23.843 46.105,23.81 46.097,23.796 42.866,18.054 41.497,15.923 38.503,10.514 37.681,8.794 35.926,7.608 33.908,7.608 l 0,0 z M 17.283,7.577 c -2.661,0.209 -4.708,2.461 -4.687,5.156 10e-4,2.834 2.277,5.13 5.084,5.13 0.657,0 1.308,-0.129 1.916,-0.38 1.225,-0.272 2.549,0.354 3.094,1.375 0.65,1.152 0.508,2.522 -0.376,3.5 -1.212,0.979 -1.914,2.464 -1.906,4.032 -0.115,2.832 2.066,5.222 4.87,5.338 2.805,0.115 5.171,-2.086 5.286,-4.919 0.005,-0.14 0.005,-0.28 0,-0.419 0,-0.987 -0.282,-1.953 -0.811,-2.782 -3.138,-5.568 -4.536,-7.737 -7.469,-13.032 -0.807,-1.787 -2.555,-2.952 -4.5,-3 -0.167,-0.008 -0.333,-0.008 -0.501,0.001 l 0,0 z"
   id="path5"
   inkscape:connector-curvature="0"
   style="fill:#ffffff" />
</g>
</svg>